HIERARCHY
ROOT Hips
{
  OFFSET 5.72205e-005 65.662 3.42586
  CHANNELS 6 Xposition Yposition Zposition Zrotation Xrotation Yrotation
  JOINT Chest
  {
    OFFSET 0 8.7983 -4.7612
    CHANNELS 3 Zrotation Xrotation Yrotation
    JOINT Chest2
    {
      OFFSET 0 8.0291 0.4195
      CHANNELS 3 Zrotation Xrotation Yrotation
      JOINT Chest3
      {
        OFFSET 0 9.9351 -2.2114
        CHANNELS 3 Zrotation Xrotation Yrotation
        JOINT Neck
        {
          OFFSET 0 22.3885 -0.4656
          CHANNELS 3 Zrotation Xrotation Yrotation
          JOINT Head
          {
            OFFSET -0.0001 12.643 3.4389
            CHANNELS 3 Zrotation Xrotation Yrotation
            End Site
            {
              OFFSET 0.0001 17.6655 0.5274
            }
          }
        }
        JOINT LeftCollar
        {
          OFFSET 2.2603 21.606 7.4023
          CHANNELS 3 Zrotation Xrotation Yrotation
          JOINT LeftShoulder
          {
            OFFSET 13.5163 -1.1332 -5.0146
            CHANNELS 3 Zrotation Xrotation Yrotation
            JOINT LeftElbow
            {
              OFFSET -0.0995 -28.05 -0.2431
              CHANNELS 3 Zrotation Xrotation Yrotation
              JOINT LeftWrist
              {
                OFFSET 0.0679 -23.3996 -0.1402
                CHANNELS 3 Zrotation Xrotation Yrotation
                JOINT LeftFinger1
                {
                  OFFSET 0.7932 -9.069 2.5189
                  CHANNELS 3 Zrotation Xrotation Yrotation
                  JOINT LeftFinger11
                  {
                    OFFSET -0.8272 -3.3923 0.5977
                    CHANNELS 3 Zrotation Xrotation Yrotation
                    JOINT LeftFinger12
                    {
                      OFFSET -0.5649 -2.3158 0.4082
                      CHANNELS 3 Zrotation Xrotation Yrotation
                      End Site
                      {
                        OFFSET -0.4919 -1.6479 0.2673
                      }
                    }
                  }
                }
                JOINT LeftFinger2
                {
                  OFFSET 0.9159 -9.2044 0.2193
                  CHANNELS 3 Zrotation Xrotation Yrotation
                  JOINT LeftFinger21
                  {
                    OFFSET 0.0117 -4.1944 -0.0248
                    CHANNELS 3 Zrotation Xrotation Yrotation
                    JOINT LeftFinger22
                    {
                      OFFSET 0.0071 -2.3249 -0.0142
                      CHANNELS 3 Zrotation Xrotation Yrotation
                      End Site
                      {
                        OFFSET -0.1475 -2.0882 0.0028
                      }
                    }
                  }
                }
                JOINT LeftFinger3
                {
                  OFFSET 0.6113 -8.7231 -2.0637
                  CHANNELS 3 Zrotation Xrotation Yrotation
                  JOINT LeftFinger31
                  {
                    OFFSET -0.1927 -3.8059 -0.2383
                    CHANNELS 3 Zrotation Xrotation Yrotation
                    JOINT LeftFinger32
                    {
                      OFFSET -0.1091 -2.1688 -0.1362
                      CHANNELS 3 Zrotation Xrotation Yrotation
                      End Site
                      {
                        OFFSET -0.2358 -1.9176 -0.0906
                      }
                    }
                  }
                }
                JOINT LeftFinger4
                {
                  OFFSET -0.6151 -8.0947 -3.5641
                  CHANNELS 3 Zrotation Xrotation Yrotation
                  JOINT LeftFinger41
                  {
                    OFFSET -0.4882 -2.341 -0.6462
                    CHANNELS 3 Zrotation Xrotation Yrotation
                    JOINT LeftFinger42
                    {
                      OFFSET -0.3575 -1.7167 -0.4742
                      CHANNELS 3 Zrotation Xrotation Yrotation
                      End Site
                      {
                        OFFSET -0.4187 -1.5237 -0.3496
                      }
                    }
                  }
                }
                JOINT LeftFinger0
                {
                  OFFSET -1.42 -1.8761 1.4223
                  CHANNELS 3 Zrotation Xrotation Yrotation
                  JOINT LeftFinger01
                  {
                    OFFSET -1.1471 -3.4929 2.6334
                    CHANNELS 3 Zrotation Xrotation Yrotation
                    JOINT LeftFinger02
                    {
                      OFFSET -0.823 -2.3 1.6571
                      CHANNELS 3 Zrotation Xrotation Yrotation
                      End Site
                      {
                        OFFSET -0.5822 -1.6914 1.1582
                      }
                    }
                  }
                }
              }
            }
          }
        }
        JOINT RightCollar
        {
          OFFSET -2.2603 21.606 7.4023
          CHANNELS 3 Zrotation Xrotation Yrotation
          JOINT RightShoulder
          {
            OFFSET -13.5187 -1.1334 -5.0155
            CHANNELS 3 Zrotation Xrotation Yrotation
            JOINT RightElbow
            {
              OFFSET 0.0994 -28.0499 -0.2431
              CHANNELS 3 Zrotation Xrotation Yrotation
              JOINT RightWrist
              {
                OFFSET -0.0679 -23.3996 -0.1402
                CHANNELS 3 Zrotation Xrotation Yrotation
                JOINT RightFinger1
                {
                  OFFSET -0.7932 -9.0691 2.5189
                  CHANNELS 3 Zrotation Xrotation Yrotation
                  JOINT RightFinger11
                  {
                    OFFSET 0.8272 -3.3923 0.5977
                    CHANNELS 3 Zrotation Xrotation Yrotation
                    JOINT RightFinger12
                    {
                      OFFSET 0.565 -2.3158 0.4082
                      CHANNELS 3 Zrotation Xrotation Yrotation
                      End Site
                      {
                        OFFSET 0.4919 -1.6479 0.2673
                      }
                    }
                  }
                }
                JOINT RightFinger2
                {
                  OFFSET -0.916 -9.2044 0.2193
                  CHANNELS 3 Zrotation Xrotation Yrotation
                  JOINT RightFinger21
                  {
                    OFFSET -0.0117 -4.1944 -0.0248
                    CHANNELS 3 Zrotation Xrotation Yrotation
                    JOINT RightFinger22
                    {
                      OFFSET -0.0071 -2.3249 -0.0142
                      CHANNELS 3 Zrotation Xrotation Yrotation
                      End Site
                      {
                        OFFSET 0.1475 -2.0882 0.0028
                      }
                    }
                  }
                }
                JOINT RightFinger3
                {
                  OFFSET -0.6113 -8.7231 -2.0637
                  CHANNELS 3 Zrotation Xrotation Yrotation
                  JOINT RightFinger31
                  {
                    OFFSET 0.1927 -3.8059 -0.2383
                    CHANNELS 3 Zrotation Xrotation Yrotation
                    JOINT RightFinger32
                    {
                      OFFSET 0.1091 -2.1688 -0.1362
                      CHANNELS 3 Zrotation Xrotation Yrotation
                      End Site
                      {
                        OFFSET 0.2358 -1.9176 -0.0906
                      }
                    }
                  }
                }
                JOINT RightFinger4
                {
                  OFFSET 0.6151 -8.0947 -3.564
                  CHANNELS 3 Zrotation Xrotation Yrotation
                  JOINT RightFinger41
                  {
                    OFFSET 0.4882 -2.341 -0.6462
                    CHANNELS 3 Zrotation Xrotation Yrotation
                    JOINT RightFinger42
                    {
                      OFFSET 0.3574 -1.7166 -0.4742
                      CHANNELS 3 Zrotation Xrotation Yrotation
                      End Site
                      {
                        OFFSET 0.4187 -1.5237 -0.3496
                      }
                    }
                  }
                }
                JOINT RightFinger0
                {
                  OFFSET 1.4199 -1.8761 1.4221
                  CHANNELS 3 Zrotation Xrotation Yrotation
                  JOINT RightFinger01
                  {
                    OFFSET 1.1472 -3.4929 2.6336
                    CHANNELS 3 Zrotation Xrotation Yrotation
                    JOINT RightFinger02
                    {
                      OFFSET 0.8229 -2.3 1.6571
                      CHANNELS 3 Zrotation Xrotation Yrotation
                      End Site
                      {
                        OFFSET 0.5822 -1.6914 1.1582
                      }
                    }
                  }
                }
              }
            }
          }
        }
      }
    }
  }
  JOINT RightHip
  {
    OFFSET -9.412 3.9771 -0.7758
    CHANNELS 3 Zrotation Xrotation Yrotation
    JOINT RightKnee
    {
      OFFSET -0.7531 -40.938 0
      CHANNELS 3 Zrotation Xrotation Yrotation
      JOINT RightAnkle
      {
        OFFSET 0 -40.1986 0
        CHANNELS 3 Zrotation Xrotation Yrotation
        JOINT RightToe
        {
          OFFSET 0 -4.4182 9.239
          CHANNELS 3 Zrotation Xrotation Yrotation
          End Site
          {
            OFFSET 0 0 6.1981
          }
        }
      }
    }
  }
  JOINT LeftHip
  {
    OFFSET 9.4119 3.9773 -0.7758
    CHANNELS 3 Zrotation Xrotation Yrotation
    JOINT LeftKnee
    {
      OFFSET 0.7532 -40.9383 0
      CHANNELS 3 Zrotation Xrotation Yrotation
      JOINT LeftAnkle
      {
        OFFSET 0 -40.1986 0
        CHANNELS 3 Zrotation Xrotation Yrotation
        JOINT LeftToe
        {
          OFFSET 0 -4.4182 9.239
          CHANNELS 3 Zrotation Xrotation Yrotation
          End Site
          {
            OFFSET 0 0 6.1981
          }
        }
      }
    }
  }
}
MOTION
Frames:	4
Frame Time:	0.0333333
5.72205e-005 65.662 3.42586 0 0 -0 0 0 -0 0 0 -0 0 0 -0 0 0 -0 0 0 -0 0 0 -12.5014 88.1196 14.2451 10.6914 -0.00160068 -0.00239207 0.000740045 -8.4365e-005 7.00714e-005 -9.52055e-007 9.93923e-017 -1.98785e-016 -1.59028e-015 9.93923e-017 -5.96354e-016 -1.59028e-015 -9.93923e-017 -5.96354e-016 -1.59028e-015 9.93923e-017 -1.98785e-016 -1.59028e-015 -0.0128176 0.00232552 8.52707e-005 9.93923e-017 5.96354e-016 -0 9.93923e-017 -1.98785e-016 -1.59028e-015 -0.0160551 0.00299681 0.000857156 -2.48481e-016 0 3.18055e-015 9.93923e-017 -1.98785e-016 -1.59028e-015 -0.0125865 0.0031206 0.00282719 0 1.98785e-016 -0 9.93923e-017 -1.98785e-016 -1.59028e-015 9.93923e-017 -5.96354e-016 -1.59028e-015 -9.93923e-017 -5.96354e-016 -1.59028e-015 -0.865644 0.16582 7.03859 -88.0329 10.2057 -10.5567 0.0015593 -0.00248883 -0.000788628 7.87605e-005 4.10553e-005 1.24965e-005 -3.97569e-016 -7.95139e-016 3.18055e-015 -1.98785e-016 -3.97569e-016 3.18055e-015 -1.98785e-016 0 3.18055e-015 -3.97569e-016 -7.95139e-016 3.18055e-015 0.0129473 0.00231697 -8.70038e-005 9.93923e-017 -7.95139e-016 1.59028e-015 -3.97569e-016 -7.95139e-016 3.18055e-015 0.0163314 0.00303369 -0.000872333 3.97569e-016 7.95139e-016 -3.18055e-015 -3.97569e-016 -7.95139e-016 3.18055e-015 0.0145763 0.00367772 -0.00326275 9.93923e-017 -3.97569e-016 -0 -3.97569e-016 -7.95139e-016 3.18055e-015 -1.98785e-016 -3.97569e-016 3.18055e-015 -1.98785e-016 0 3.18055e-015 3.42482 1.32465 -0.0626183 0.000117508 0.717283 0.000978199 -3.4257 -2.04197 -0.0604716 6.47761e-025 0 -0 -3.42483 1.34017 0.0627307 -0.000193936 0.682302 -0.0013703 3.42574 -2.02253 0.0595886 -8.45714e-024 0 -7.40531e-025 
39.8492 65.3059 26.7605 -1.80381e-008 18.9975 -6.99204e-008 -0.242912 1.86397 -0.192431 -0.479938 3.72874 -0.37725 -0.479936 3.7287 -0.377247 2.90361e-005 -26.0017 1.84911e-005 1.54704e-007 17.9983 -4.48813e-008 6.45557 10.239 -7.9742 10.3367 5.33202 24.7207 -27.5851 4.82037 -6.64664 -2.56867 -24.3318 -5.72191 1.98785e-015 4.77083e-015 3.18055e-015 -3.97569e-016 4.77083e-015 3.18055e-015 0 1.59028e-015 -0 1.98785e-015 4.77083e-015 3.18055e-015 -0.0127696 0.00231453 8.4741e-005 7.95139e-016 -1.59028e-015 3.18055e-015 1.98785e-015 4.77083e-015 3.18055e-015 -0.0160545 0.00299789 0.000858945 8.82781e-032 -1.59028e-015 3.18055e-015 1.98785e-015 4.77083e-015 3.18055e-015 -0.0126219 0.0031358 0.00284055 -1.19271e-015 -1.59028e-015 -1.59028e-015 1.98785e-015 4.77083e-015 3.18055e-015 -3.97569e-016 4.77083e-015 3.18055e-015 0 1.59028e-015 -0 2.86868 11.1301 -1.40809 -12.3557 9.01493 -19.0816 12.0315 2.20618 3.26847 10.5317 -17.1926 6.14171 5.09037e-006 -3.02457e-006 5.21537e-006 1.76556e-031 -6.36111e-015 1.59028e-015 -1.59028e-015 -3.18055e-015 -3.18055e-015 5.09037e-006 -3.02457e-006 5.21537e-006 0.0129227 0.0023173 -8.83972e-005 -1.59028e-015 9.54166e-015 3.18055e-015 5.09037e-006 -3.02457e-006 5.21537e-006 0.0163521 0.00304621 -0.000874548 1.59028e-015 0 -1.59028e-015 5.09037e-006 -3.02457e-006 5.21537e-006 0.014559 0.00367308 -0.00325634 1.76556e-031 -3.18055e-015 3.18055e-015 5.09037e-006 -3.02457e-006 5.21537e-006 1.76556e-031 -6.36111e-015 1.59028e-015 -1.59028e-015 -3.18055e-015 -3.18055e-015 2.45936 -30.9089 -0.434849 -6.6172 8.58906 1.58095 14.7042 2.1609 -17.8361 -5.46658e-016 1.12156e-007 -0 8.03055 -30.156 71.8097 2.84564 12.1404 -1.45271 3.03047 7.70446 -35.2653 1.26387e-006 -1.97796e-008 1.3634e-007 
39.8446 65.1414 26.7683 1.56951e-007 18.9975 -9.84717e-008 -0.242461 1.63294 -0.192751 -0.479716 3.26668 -0.378815 -0.479715 3.26667 -0.378814 1.60132e-005 -26.0016 1.01165e-005 -1.79632e-007 17.9984 2.22115e-007 6.90912 11.1753 -8.07412 10.3367 5.33202 24.7208 -28.3741 4.94294 -6.90036 -2.21972 -24.5995 -6.01549 1.59028e-015 4.77083e-015 3.18055e-015 1.59028e-015 4.77083e-015 -0 1.59028e-015 6.36111e-015 3.18055e-015 1.59028e-015 4.77083e-015 3.18055e-015 -0.0127812 0.00231498 8.21267e-005 -7.95139e-016 -4.77083e-015 -3.18055e-015 1.59028e-015 4.77083e-015 3.18055e-015 -0.0161001 0.0029992 0.000858983 7.95139e-016 -1.59028e-015 1.59028e-015 1.59028e-015 4.77083e-015 3.18055e-015 -0.0125874 0.00311593 0.00282193 1.19271e-015 -1.59028e-015 3.18055e-015 1.59028e-015 4.77083e-015 3.18055e-015 1.59028e-015 4.77083e-015 -0 1.59028e-015 6.36111e-015 3.18055e-015 2.2108 12.1273 -1.33741 -12.3492 9.00444 -19.0829 12.9641 2.36664 3.42326 10.1505 -17.6463 6.44342 3.18055e-015 -1.27222e-014 -4.77083e-015 -1.59028e-015 -9.54166e-015 -4.77083e-015 7.95139e-016 -6.36111e-015 -1.59028e-015 3.18055e-015 -1.27222e-014 -4.77083e-015 0.0129939 0.00232126 -8.54715e-005 -7.95139e-016 -3.18055e-015 1.59028e-015 3.18055e-015 -1.27222e-014 -4.77083e-015 0.0163194 0.00303029 -0.000874732 7.95139e-016 -1.27222e-014 -0 3.18055e-015 -1.27222e-014 -4.77083e-015 0.0145922 0.00367802 -0.00326578 -8.82781e-032 -3.18055e-015 -1.59028e-015 3.18055e-015 -1.27222e-014 -4.77083e-015 -1.59028e-015 -9.54166e-015 -4.77083e-015 7.95139e-016 -6.36111e-015 -1.59028e-015 2.11998 -31.8697 -3.13299 -6.95448 9.91355 1.70605 14.3767 1.99705 -15.1919 2.33572e-015 -2.24296e-007 -3.18055e-015 8.56024 -30.853 71.756 3.4433 13.3367 -1.61035 2.64203 7.15025 -34.8215 -8.42563e-007 7.61824e-007 -8.85886e-008 
39.8404 64.9768 26.7758 5.09539e-009 18.9975 -1.56527e-008 -0.241982 1.40113 -0.193055 -0.479454 2.80306 -0.380357 -0.479454 2.80305 -0.380357 2.74615e-005 -26.0016 1.75302e-005 8.3739e-007 17.9983 -1.1415e-007 7.36648 12.1118 -8.18207 10.3367 5.33203 24.7208 -29.1616 5.06426 -7.16546 -1.87086 -24.8688 -6.30714 1.98785e-015 -1.59028e-015 -1.59028e-015 3.97569e-016 -1.59028e-015 1.59028e-015 1.59028e-015 -3.18055e-015 -1.59028e-015 1.98785e-015 -1.59028e-015 -1.59028e-015 -0.0128766 0.00233423 8.60178e-005 1.90629e-007 -1.66985e-006 -8.19136e-007 1.98785e-015 -1.59028e-015 -1.59028e-015 -0.0160919 0.00300526 0.000860215 3.71002e-006 -2.09492e-006 -1.50061e-006 1.98785e-015 -1.59028e-015 -1.59028e-015 -0.0125659 0.00311518 0.00282024 3.44945e-006 -1.40168e-006 -1.72671e-006 1.98785e-015 -1.59028e-015 -1.59028e-015 3.97569e-016 -1.59028e-015 1.59028e-015 1.59028e-015 -3.18055e-015 -1.59028e-015 1.54793 13.1252 -1.25452 -12.3428 8.99392 -19.0842 13.8964 2.52634 3.58993 9.77045 -18.1021 6.74259 9.99017e-006 1.7409e-006 4.8234e-006 3.17868e-007 -2.87474e-006 -8.94368e-007 -1.59028e-015 -6.36111e-015 -3.18055e-015 9.99017e-006 1.7409e-006 4.8234e-006 0.0129773 0.00231689 -8.49084e-005 7.95139e-016 0 -1.59028e-015 9.99017e-006 1.7409e-006 4.8234e-006 0.0163419 0.0030379 -0.000874785 7.95139e-016 0 -1.59028e-015 9.99017e-006 1.7409e-006 4.8234e-006 0.0146026 0.00368808 -0.00326791 7.95139e-016 -6.36111e-015 -3.18055e-015 9.99017e-006 1.7409e-006 4.8234e-006 3.17868e-007 -2.87474e-006 -8.94368e-007 -1.59028e-015 -6.36111e-015 -3.18055e-015 1.71531 -32.9533 -5.88853 -7.30797 11.3617 1.8537 14.0503 1.82443 -12.533 8.41046e-007 2.77366e-007 2.55382e-008 9.08195 -31.5496 71.7038 4.04901 14.5139 -1.78219 2.25694 6.6022 -34.3812 5.07865e-006 -2.75856e-006 -8.02713e-006 
